<?xml version="1.0" encoding="UTF-8"?>
<svg xmlns="http://www.w3.org/2000/svg" xmlns:xlink="http://www.w3.org/1999/xlink" width="220px" height="220px" viewBox="0 0 220 220" version="1.1">
<g id="surface1">
<path style=" stroke:none;fill-rule:nonzero;fill:rgb(13.72549%,16.078431%,18.431373%);fill-opacity:1;" d="M 220 110 C 220 170.75 170.75 220 110 220 C 49.25 220 0 170.75 0 110 C 0 49.25 49.25 0 110 0 C 170.75 0 220 49.25 220 110 Z M 220 110 "/>
<path style=" stroke:none;fill-rule:nonzero;fill:rgb(100%,100%,100%);fill-opacity:1;" d="M 158.605469 55 L 178.476562 55 L 137.121094 95.953125 C 122.078125 110.777344 97.921875 110.777344 82.878906 95.953125 L 41.492188 55 L 61.394531 55 L 92.8125 86.09375 C 102.332031 95.492188 117.640625 95.492188 127.160156 86.09375 Z M 61.152344 168.871094 L 41.25 168.871094 L 82.878906 127.667969 C 97.921875 112.847656 122.078125 112.847656 137.121094 127.667969 L 178.75 168.863281 L 158.847656 168.863281 L 127.1875 137.5 C 117.667969 128.101562 102.359375 128.101562 92.839844 137.5 L 61.144531 168.871094 Z M 61.152344 168.871094 "/>
</g>
</svg>
